# xmcd
#
# Track frame offsets:
#	150
#	29690
#	73715
#	87352
#	101957
#	114702
#	170177
#
# Disc length: 2679 seconds
#
# Revision: 2
# Processed by: cddbd v1.5.2PL0 Copyright (c) Steve Scherf et al.
# Submitted via: EasyCDDAExtractor 15.3.0.1
#
DISCID=680a7507
DTITLE=Daniela Romo - En Vivo Desde El Teatro Alameda - CD 1
DYEAR=1998
DGENRE=Latin
TTITLE0=Una Aventura
TTITLE1=Que Sabes Tu, Franqueza, Voy, Si Dios Me Quita La Vida
TTITLE2=Quiero Amanecer Con Alguien
TTITLE3=Amada Mas Que Nunca
TTITLE4=Mulata, Espinita, Me Lo Dijo Adela, Piel Canela, Mulatas Del Cha, Cha,
TTITLE4=Cha
TTITLE5=Yo No Te Pido La Luna, Quiero Saber, Poesias, Ese Momento
TTITLE6=Todo, Todo, Todo
EXTD=YEAR: 1997
EXTT0=
EXTT1=
EXTT2=
EXTT3=
EXTT4=
EXTT5=
EXTT6=
PLAYORDER=
